<svg width="200" height="200" viewBox="0 0 200 200" fill="none" xmlns="http://www.w3.org/2000/svg">
<g clip-path="url(#clip0_157_39)">
<rect width="200" height="200" fill="#FF336E"/>
<path d="M155.455 26.7996C154.395 25.9828 153.16 25.4229 151.847 25.1638C150.534 24.9047 149.179 24.9535 147.888 25.3063L81.152 43.2458C78.8364 43.8678 76.7931 45.2416 75.3434 47.1513C73.8937 49.061 73.1197 51.3984 73.1431 53.7959V129.465C73.1431 131.721 71.6833 133.67 69.4233 134.43L69.3831 134.447L51.9726 140.474C45.3131 142.7 41.0006 148.884 41.0006 156.22C40.9762 159.204 41.6702 162.15 43.0239 164.809C44.3777 167.468 46.3514 169.762 48.7784 171.498C51.9039 173.768 55.6664 174.994 59.5294 175C61.5505 174.996 63.5575 174.665 65.4725 174.019L65.5997 173.975L72.9121 171.317C76.0841 170.258 78.8452 168.233 80.808 165.525C82.7709 162.818 83.8372 159.564 83.8573 156.22V85.2387C83.8573 82.7979 85.4544 80.8157 87.9287 80.193L87.999 80.1729L146.468 64.557C146.666 64.506 146.872 64.5008 147.072 64.5418C147.272 64.5828 147.46 64.6689 147.621 64.7936C147.783 64.9183 147.914 65.0782 148.004 65.2612C148.094 65.4442 148.142 65.6453 148.142 65.8494V113.37C148.142 115.63 146.719 117.515 144.423 118.285L144.339 118.315L127.3 124.379C123.986 125.469 121.105 127.585 119.074 130.42C117.043 133.256 115.966 136.664 116 140.152C115.97 143.145 116.661 146.101 118.015 148.77C119.369 151.439 121.345 153.743 123.778 155.487C126.159 157.208 128.92 158.331 131.827 158.759C134.734 159.187 137.702 158.909 140.478 157.948L140.599 157.908L147.911 155.246C151.083 154.187 153.844 152.163 155.807 149.456C157.77 146.749 158.836 143.496 158.857 140.152V33.7069C158.864 32.3706 158.56 31.051 157.97 29.8522C157.38 28.6534 156.518 27.6084 155.455 26.7996Z" fill="white"/>
<rect width="200" height="200" fill="url(#paint0_radial_157_39)"/>
</g>
<defs>
<radialGradient id="paint0_radial_157_39" cx="0" cy="0" r="1" gradientUnits="userSpaceOnUse" gradientTransform="rotate(45) scale(282.843)">
<stop offset="0.5" stop-opacity="0"/>
<stop offset="1" stop-opacity="0.3"/>
</radialGradient>
<clipPath id="clip0_157_39">
<rect width="200" height="200" fill="white"/>
</clipPath>
</defs>
</svg>
