<svg width="200" height="200" viewBox="0 0 200 200" fill="none" xmlns="http://www.w3.org/2000/svg">
<g clip-path="url(#clip0_157_51)">
<rect width="200" height="200" fill="#9C9BA0"/>
<path d="M123.438 104.938C123.438 111.154 120.968 117.115 116.573 121.51C112.177 125.906 106.216 128.375 100 128.375C93.784 128.375 87.8226 125.906 83.4272 121.51C79.0318 117.115 76.5625 111.154 76.5625 104.938C76.5625 98.7215 79.0318 92.7601 83.4272 88.3647C87.8226 83.9693 93.784 81.5 100 81.5C106.216 81.5 112.177 83.9693 116.573 88.3647C120.968 92.7601 123.438 98.7215 123.438 104.938Z" fill="white"/>
<path d="M43.75 62.75C38.7772 62.75 34.0081 64.7254 30.4917 68.2417C26.9754 71.7581 25 76.5272 25 81.5L25 137.75C25 142.723 26.9754 147.492 30.4917 151.008C34.0081 154.525 38.7772 156.5 43.75 156.5H156.25C161.223 156.5 165.992 154.525 169.508 151.008C173.025 147.492 175 142.723 175 137.75V81.5C175 76.5272 173.025 71.7581 169.508 68.2417C165.992 64.7254 161.223 62.75 156.25 62.75H145.263C140.29 62.7489 135.522 60.7728 132.006 57.2563L124.244 49.4937C120.728 45.9772 115.96 44.0011 110.987 44H89.0125C84.0401 44.0011 79.2717 45.9772 75.7563 49.4937L67.9937 57.2563C64.4783 60.7728 59.7099 62.7489 54.7375 62.75H43.75ZM48.4375 81.5C47.1943 81.5 46.002 81.0061 45.1229 80.1271C44.2439 79.248 43.75 78.0557 43.75 76.8125C43.75 75.5693 44.2439 74.377 45.1229 73.4979C46.002 72.6189 47.1943 72.125 48.4375 72.125C49.6807 72.125 50.873 72.6189 51.7521 73.4979C52.6311 74.377 53.125 75.5693 53.125 76.8125C53.125 78.0557 52.6311 79.248 51.7521 80.1271C50.873 81.0061 49.6807 81.5 48.4375 81.5ZM132.812 104.938C132.812 113.64 129.355 121.986 123.202 128.139C117.048 134.293 108.702 137.75 100 137.75C91.2976 137.75 82.9516 134.293 76.7981 128.139C70.6445 121.986 67.1875 113.64 67.1875 104.938C67.1875 96.2351 70.6445 87.8891 76.7981 81.7356C82.9516 75.582 91.2976 72.125 100 72.125C108.702 72.125 117.048 75.582 123.202 81.7356C129.355 87.8891 132.812 96.2351 132.812 104.938Z" fill="white"/>
<rect width="200" height="200" fill="url(#paint0_radial_157_51)"/>
</g>
<defs>
<radialGradient id="paint0_radial_157_51" cx="0" cy="0" r="1" gradientUnits="userSpaceOnUse" gradientTransform="rotate(45) scale(282.843)">
<stop offset="0.5" stop-opacity="0"/>
<stop offset="1" stop-opacity="0.3"/>
</radialGradient>
<clipPath id="clip0_157_51">
<rect width="200" height="200" fill="white"/>
</clipPath>
</defs>
</svg>
